#!OML:ASF F:\VICON\USERDATA\INSTALL\Justin_Nancy\Justin_Nancy.ASF
:FULLY-SPECIFIED
:DEGREES
96
root -4.10922 16.3713 10.1045 -60.9938 -86.8646 73.2122
lowerback 16.6706 0.653015 -0.443701
upperback 3.03068 0.755157 1.99365
thorax -6.13572 0.323204 2.21727
lowerneck -11.8507 -2.23507 -8.71555
upperneck 11.9162 -2.39188 6.27441
head 5.72354 -1.11125 3.209
rclavicle 3.97569e-016 -4.77083e-015
rhumerus -49.4207 17.7554 -86.4727
rradius 111.708
rwrist 10.3843
rhand -14.3839 26.0033
rfingers 7.12502
rthumb 11.7589 -3.64661
lclavicle 3.97569e-016 -4.77083e-015
lhumerus -49.3949 -7.25762 84.8949
lradius 111.98
lwrist 19.5621
lhand -19.3865 5.72193
lfingers 7.12502
lthumb 6.93205 35.5884
rfemur -24.9371 -14.9285 23.1191
rtibia 89.3873
rfoot -8.96211 -9.37124
rtoes 12.8383
lfemur -17.3752 -1.90548 -0.729053
ltibia 33.1888
lfoot -12.3855 5.50404
ltoes -35.3706
97
root -4.41385 16.3342 10.3202 -77.7714 -86.1254 90.212
lowerback 16.677 0.234698 -1.65185
upperback 2.77138 0.0137709 2.08044
thorax -6.38476 -0.0021645 3.162
lowerneck -12.3844 -1.56347 -9.82786
upperneck 12.8084 -1.31617 6.62773
head 6.01962 -0.619493 3.6092
rclavicle 1.31198e-014 2.06736e-014
rhumerus -49.7033 16.8473 -85.9035
rradius 110.333
rwrist 11.1561
rhand -13.7668 25.7632
rfingers 7.12502
rthumb 12.354 -3.85178
lclavicle 1.31198e-014 2.06736e-014
lhumerus -48.4063 -5.69841 84.7321
lradius 112.278
lwrist 19.3214
lhand -19.3275 5.78371
lfingers 7.12502
lthumb 6.98899 35.6483
rfemur -28.1938 -16.9971 22.2395
rtibia 92.7059
rfoot -9.6695 -8.75508
rtoes 13.6881
lfemur -16.0828 -0.901407 -2.47583
ltibia 33.1881
lfoot -14.0046 4.72696
ltoes -37.0893
98
root -4.71843 16.2875 10.5052 -86.8237 -85.0196 99.746
lowerback 16.4036 0.0294235 -3.32447
upperback 2.52599 -0.524934 2.15799
thorax -6.44565 -0.215517 4.31718
lowerneck -12.8843 -1.11223 -10.3757
upperneck 13.2896 -0.59261 6.81006
head 6.19613 -0.282665 3.83175
rclavicle 2.06736e-014 1.35174e-014
rhumerus -50.1044 15.3814 -85.0949
rradius 109.199
rwrist 11.1468
rhand -14.2828 24.9945
rfingers 7.12502
rthumb 11.8564 -4.64982
lclavicle 2.06736e-014 1.35174e-014
lhumerus -46.9962 -5.24281 84.3681
lradius 112.518
lwrist 19.2182
lhand -20.3251 6.62805
lfingers 7.12502
lthumb 6.02595 36.5224
rfemur -31.8969 -18.898 21.9201
rtibia 95.5762
rfoot -10.2476 -8.0971
rtoes 12.6161
lfemur -15.0327 0.252901 -4.28182
ltibia 32.9618
lfoot -15.5082 4.10295
ltoes -37.8289
99
root -5.01313 16.2371 10.6892 -91.7834 -83.2636 105.13
lowerback 16.1912 -0.082902 -5.26947
upperback 2.39286 -1.01671 1.84048
thorax -6.39419 -0.407945 5.19108
lowerneck -13.3622 -0.798724 -9.9642
upperneck 13.4217 -0.159133 6.54392
head 6.27999 -0.0678284 3.72082
rclavicle 1.39149e-014 -1.98785e-014
rhumerus -50.6201 13.7361 -84.5944
rradius 108.318
rwrist 10.1714
rhand -15.7538 23.5978
rfingers 7.12502
rthumb 10.4376 -6.12314
lclavicle 1.39149e-014 -1.98785e-014
lhumerus -45.2446 -5.50343 83.1918
lradius 112.62
lwrist 20.0749
lhand -21.487 7.39953
lfingers 7.12502
lthumb 4.90416 37.3228
rfemur -35.7356 -20.6888 21.2616
rtibia 97.9591
rfoot -10.7549 -6.76356
rtoes 9.25551
lfemur -13.8952 1.19589 -6.8155
ltibia 32.5273
lfoot -16.6148 3.60139
ltoes -37.4896
100
root -5.31212 16.2134 10.8986 -94.9424 -82.4028 108.359
lowerback 16.4063 -0.548965 -5.87883
upperback 2.35119 -1.75104 1.84572
thorax -6.44368 -0.748913 5.70844
lowerneck -13.9042 -0.39216 -9.97575
upperneck 13.5901 0.501696 6.21113
head 6.37049 0.228637 3.68076
rclavicle 3.97569e-015 -4.77083e-014
rhumerus -50.7779 12.2847 -84.3309
rradius 107.368
rwrist 8.5006
rhand -16.2131 22.5261
rfingers 7.12502
rthumb 9.99453 -7.21664
lclavicle 3.97569e-015 -4.77083e-014
lhumerus -43.652 -4.6152 82.2095
lradius 112.45
lwrist 21.366
lhand -21.1508 6.93594
lfingers 7.12502
lthumb 5.22874 36.8514
rfemur -39.0373 -22.2534 21.7342
rtibia 99.3739
rfoot -11.1931 -5.33586
rtoes 4.85348
lfemur -12.3189 1.895 -8.5003
ltibia 31.8973
lfoot -17.5108 3.21529
ltoes -37.1026
101
root -5.63086 16.2078 11.1084 -99.3805 -82.4669 112.792
lowerback 16.7174 -1.03565 -5.67305
upperback 2.26259 -2.33622 2.43262
thorax -6.60995 -1.0249 6.36847
lowerneck -13.9162 0.0188006 -10.7087
upperneck 13.3039 1.29312 5.75806
head 6.21557 0.542557 3.71718
rclavicle 5.56597e-015 -2.54444e-014
rhumerus -50.9914 10.6566 -83.4793
rradius 106.844
rwrist 6.46911
rhand -15.0763 22.4325
rfingers 7.12502
rthumb 11.0912 -7.25447
lclavicle 5.56597e-015 -2.54444e-014
lhumerus -42.2668 -2.98832 82.2147
lradius 111.947
lwrist 22.036
lhand -20.2304 5.94846
lfingers 7.12502
lthumb 6.11735 35.8401
rfemur -41.8015 -23.2418 23.5283
rtibia 99.8191
rfoot -11.6781 -3.86799
rtoes -0.0406138
lfemur -10.4222 2.76565 -9.11158
ltibia 31.0569
lfoot -18.2645 3.21141
ltoes -37.8521
102
root -5.96726 16.2084 11.2869 -104.226 -82.5368 117.932
lowerback 16.556 -1.22116 -5.48738
upperback 2.1488 -2.5122 2.82038
thorax -6.60811 -1.10785 6.71734
lowerneck -13.9049 0.307984 -10.6214
upperneck 12.9643 1.77729 5.0775
head 6.07441 0.734179 3.51619
rclavicle -2.98177e-014 3.49861e-014
rhumerus -51.709 8.40062 -82.4162
rradius 107.138
rwrist 4.05725
rhand -14.501 22.2639
rfingers 7.12502
rthumb 11.646 -7.3925
lclavicle -2.98177e-014 3.49861e-014
lhumerus -40.7867 -2.15115 82.3263
lradius 111.449
lwrist 21.8625
lhand -19.3739 5.57665
lfingers 7.12502
lthumb 6.94424 35.4427
rfemur -44.7701 -23.6641 25.84
rtibia 99.5841
rfoot -12.1015 -2.36652
rtoes -2.86434
lfemur -8.71169 3.58741 -9.5324
ltibia 30.0862
lfoot -18.7467 3.29451
ltoes -37.9244
103
root -6.31108 16.2167 11.4584 -105.836 -82.2665 119.867
lowerback 16.2618 -1.48529 -5.26731
upperback 2.06728 -2.80941 2.73995
thorax -6.50403 -1.2594 6.549
lowerneck -14.2076 0.547739 -9.94912
upperneck 13.0349 2.06386 4.64251
head 6.13654 0.871999 3.29614
rclavicle 7.95139e-015 1.11319e-014
rhumerus -52.6532 6.07812 -81.6695
rradius 107.8
rwrist 2.30308
rhand -14.7999 22.0945
rfingers 7.12502
rthumb 11.3577 -7.57791
lclavicle 7.95139e-015 1.11319e-014
lhumerus -39.4092 -1.91463 81.9976
lradius 111.165
lwrist 21.6393
lhand -19.4796 6.19229
lfingers 7.12502
lthumb 6.84224 36.0617
rfemur -47.717 -24.1746 27.8341
rtibia 98.7731
rfoot -12.4746 -0.887213
rtoes -6.73979
lfemur -7.06312 3.54592 -10.4838
ltibia 28.9055
lfoot -18.7182 3.68071
ltoes -38.2749
104
root -6.65594 16.2373 11.6275 -105.91 -81.9328 120.262
lowerback 16.0757 -1.73482 -5.09082
upperback 1.95139 -3.09402 2.76755
thorax -6.49225 -1.3979 6.52771
lowerneck -14.6408 0.628259 -9.66802
upperneck 13.3142 2.20571 4.33299
head 6.29577 0.924562 3.17386
rclavicle 1.39149e-014 5.1684e-014
rhumerus -53.7559 4.54346 -80.3563
rradius 108.617
rwrist 1.06747
rhand -15.0696 22.4351
rfingers 7.12502
rthumb 11.0976 -7.2515
lclavicle 1.39149e-014 5.1684e-014
lhumerus -38.2004 -1.77545 81.9033
lradius 110.929
lwrist 21.3593
lhand -20.6204 7.17791
lfingers 7.12502
lthumb 5.74081 37.0801
rfemur -50.5247 -24.5562 29.7608
rtibia 97.4021
rfoot -12.7567 0.638711
rtoes -11.9639
lfemur -5.44491 2.80176 -11.6409
ltibia 27.5845
lfoot -18.1782 4.16648
ltoes -38.5576
105
root -7.009 16.2729 11.7709 -106.859 -81.6884 121.566
lowerback 15.9106 -1.78677 -5.32955
upperback 1.88118 -3.17624 3.07371
thorax -6.43387 -1.42969 7.00773
lowerneck -15.023 0.650793 -9.33475
upperneck 13.3075 2.30268 3.71579
head 6.36525 0.938254 2.93345
rclavicle 3.4191e-014 -3.97569e-014
rhumerus -54.9221 4.07957 -78.2869
rradius 109.691
rwrist -0.842257
rhand -15.7637 22.4424
rfingers 7.12502
rthumb 10.4281 -7.27903
lclavicle 3.4191e-014 -3.97569e-014
lhumerus -37.0442 -1.55515 82.2002
lradius 110.777
lwrist 21.5703
lhand -21.6335 6.9871
lfingers 7.12502
lthumb 4.7627 36.9136
rfemur -52.995 -24.2351 31.8599
rtibia 95.3972
rfoot -13.1412 2.21843
rtoes -14.0368
lfemur -3.80471 2.1107 -12.5821
ltibia 26.1593
lfoot -17.2952 4.27345
ltoes -38.8648
106
root -7.36594 16.3196 11.9045 -109.228 -81.3626 124.46
lowerback 15.6211 -1.85439 -5.59321
upperback 1.76296 -3.28063 3.29486
thorax -6.35706 -1.47091 7.40774
lowerneck -15.2129 0.823737 -8.83744
upperneck 13.0871 2.54916 3.07665
head 6.3268 1.03491 2.66748
rclavicle 1.78906e-014 -2.54444e-014
rhumerus -56.0589 2.779 -78.5261
rradius 110.206
rwrist -0.261439
rhand -16.7876 22.7173
rfingers 7.12502
rthumb 9.44028 -7.05129
lclavicle 1.78906e-014 -2.54444e-014
lhumerus -36.1561 -1.15742 82.4147
lradius 110.707
lwrist 21.888
lhand -22.1308 6.04559
lfingers 7.12502
lthumb 4.28242 35.9823
rfemur -55.1575 -23.0582 33.9123
rtibia 92.7856
rfoot -14.0969 2.32227
rtoes -13.7455
lfemur -2.3586 1.96531 -13.414
ltibia 24.7852
lfoot -16.0128 3.99434
ltoes -39.4215
107
root -7.73094 16.3878 12.0412 -111.417 -81.0517 127.176
lowerback 15.3028 -2.08013 -5.382
upperback 1.63232 -3.52676 3.25194
thorax -6.29718 -1.59375 7.26857
lowerneck -15.3317 1.17882 -8.02864
upperneck 12.9739 2.94922 2.53078
head 6.3063 1.22619 2.39774
rclavicle -2.50469e-014 2.3059e-014
rhumerus -57.2677 2.16277 -78.7538
rradius 110.799
rwrist -0.202861
rhand -17.1038 22.9322
rfingers 7.12502
rthumb 9.13519 -6.84992
lclavicle -2.50469e-014 2.3059e-014
lhumerus -35.4531 -1.00231 82.2811
lradius 110.787
lwrist 22.1802
lhand -22.4126 5.46415
lfingers 7.12502
lthumb 4.01031 35.4061
rfemur -56.8628 -21.67 35.6994
rtibia 89.63
rfoot -14.5299 3.02162
rtoes -12.2167
lfemur -1.06354 1.65545 -14.2204
ltibia 23.5843
lfoot -14.3041 3.709
ltoes -39.8587
108
root -8.10331 16.46 12.1794 -113.418 -80.8793 129.635
lowerback 14.9223 -2.38262 -4.7998
upperback 1.59886 -3.82176 3.0884
thorax -6.12553 -1.75964 6.78301
lowerneck -15.3186 1.52957 -6.941
upperneck 12.6829 3.2685 1.98491
head 6.22007 1.39703 2.07223
rclavicle 1.27222e-014 -1.59028e-015
rhumerus -58.3428 2.02578 -79.224
rradius 111.356
rwrist -0.0345265
rhand -17.3269 22.9212
rfingers 7.12502
rthumb 8.91995 -6.87023
lclavicle 1.27222e-014 -1.59028e-015
lhumerus -35.0695 -1.41308 81.7466
lradius 111.241
lwrist 22.8258
lhand -22.1021 5.47922
lfingers 7.12502
lthumb 4.31014 35.4154
rfemur -58.1966 -20.979 37.5691
rtibia 86.0371
rfoot -14.7884 3.8809
rtoes -15.9565
lfemur 0.128023 0.630793 -14.9922
ltibia 22.63
lfoot -12.0631 3.67122
ltoes -40.0347
